<svg width="72" height="76" viewBox="0 0 72 76" fill="none" xmlns="http://www.w3.org/2000/svg">
<g clip-path="url(#clip0_1401_9646)">
<path d="M39.367 21.0024C39.367 20.9662 39.3414 20.9301 39.3198 20.8691C39.2557 20.9263 39.1983 20.9901 39.1487 21.0595C38.7967 21.7373 38.4408 22.4189 38.3621 23.1899C38.3397 23.4007 38.353 23.6135 38.4015 23.8201C38.484 24.138 38.5509 24.4598 38.6099 24.7834H39.5243C39.5683 24.4144 39.5768 24.0422 39.5498 23.6716C39.5125 23.049 39.4653 22.4246 39.4673 21.8001C39.4631 21.5315 39.4295 21.2641 39.367 21.0024Z" fill="#FF9000"/>
<path d="M34.8681 19.7734C34.8347 19.6249 34.815 19.4764 34.7717 19.3317C34.755 19.2587 34.7203 19.1907 34.6707 19.1333C34.6211 19.076 34.5579 19.0311 34.4866 19.0023C34.3529 19.2232 34.404 19.5088 34.1995 19.7239L33.4759 18.7529C33.438 18.7683 33.4012 18.7861 33.3657 18.8062C33.0486 19.0102 32.7581 19.2505 32.5005 19.5221L32.4494 19.5773L31.9598 20.0951L31.5547 20.5235C31.7297 20.9804 31.8949 21.4183 32.066 21.8562C32.1697 22.1008 32.3016 22.3333 32.4592 22.5492C32.4927 22.6006 32.5281 22.6501 32.5635 22.6996C32.6404 22.8205 32.7546 22.9151 32.8899 22.9699C32.9056 22.9552 32.9201 22.9393 32.9331 22.9223C33.0111 22.7339 33.1553 22.5782 33.3402 22.4826C33.3641 22.4705 33.3839 22.452 33.3972 22.4293C33.5073 22.2674 33.6155 22.1037 33.7236 21.94L33.8082 21.8181C33.8744 21.8468 33.9492 21.851 34.0183 21.8299C34.0875 21.8089 34.1464 21.7641 34.1838 21.7039C34.2072 21.673 34.2328 21.6437 34.2605 21.6163C34.5882 21.2272 34.8383 20.7823 34.9979 20.3046V20.276C34.9428 20.0856 34.9035 19.9276 34.8681 19.7734Z" fill="#FF9000"/>
<path d="M40.219 24.9867H41.9259V5.99771L36.1289 0.476562L30.0547 6.24711V48.4039L35.9755 54.3363L41.8748 48.9789V29.7958H39.1513C39.1808 30.5573 39.2024 31.3188 39.2457 32.0804C39.2766 32.8471 39.456 33.6014 39.7746 34.3041C39.8022 34.365 39.8297 34.4278 39.8612 34.4944C40.0803 34.8611 40.2408 35.2578 40.337 35.671C40.4019 36.0385 40.4354 36.4135 40.4668 36.7867C40.5553 37.8376 40.6359 38.8809 40.7165 39.9394C40.7362 40.1984 40.7401 40.4573 40.7519 40.741C40.5553 40.7657 40.3587 40.7924 40.162 40.8114C40.1166 40.8154 40.071 40.8054 40.0318 40.7829C39.9926 40.7603 39.9618 40.7263 39.9437 40.6857C39.8848 40.5753 39.8199 40.4668 39.7707 40.3545C39.7572 40.3247 39.7454 40.2942 39.7353 40.2631C39.5485 39.6919 39.3558 39.1208 39.2004 38.5325C39.0317 37.9136 38.8282 37.3041 38.5909 36.7067C38.4041 36.2365 38.2664 35.7548 38.0993 35.2674C38.0243 35.022 37.9296 34.7827 37.8161 34.5516C37.5635 34.0739 37.3934 33.5594 37.3127 33.0285C37.2635 32.7353 37.2045 32.4421 37.1397 32.1527C36.9445 31.3015 36.6929 30.4634 36.3865 29.6435C36.1899 29.1104 35.9932 28.5735 35.8084 28.0385C35.7612 27.911 35.716 27.7796 35.5508 27.7491H35.5075C35.4879 27.8005 35.4603 27.8538 35.4426 27.911C35.2535 28.5375 35.0973 29.1729 34.9746 29.8148C34.9091 30.1524 34.8573 30.4926 34.8193 30.8353C34.7072 31.8595 34.5814 32.8857 34.3651 33.8966C34.3218 34.1042 34.2608 34.3079 34.2018 34.5097C34.1017 34.8425 34.0507 35.1873 34.0504 35.5339C34.0342 36.117 33.9724 36.6981 33.8656 37.2722C33.8125 37.6148 33.7928 37.9613 33.7751 38.3059C33.7456 38.9342 33.7279 39.5625 33.7063 40.1888C33.7044 40.2305 33.6985 40.272 33.6886 40.3126C33.6867 40.3335 33.6804 40.3538 33.6702 40.3723C33.6599 40.3908 33.646 40.4071 33.6291 40.4203C33.6122 40.4334 33.5927 40.4431 33.5719 40.4488C33.551 40.4545 33.5292 40.4561 33.5077 40.4535C33.3642 40.4535 33.2167 40.4535 33.0712 40.4535C32.8549 40.4402 32.7919 40.383 32.7349 40.1793C32.613 39.7338 32.5147 39.2845 32.436 38.8333C32.314 38.127 32.2352 37.4144 32.2 36.6991C32.1709 36.2351 32.1663 35.7699 32.1863 35.3055C32.2133 34.8088 32.297 34.3165 32.436 33.8376C32.4714 33.7158 32.5107 33.5939 32.556 33.4721C32.6541 33.1643 32.6921 32.8415 32.668 32.5202C32.6405 31.4026 32.6032 30.285 32.5638 29.1675C32.5481 28.6934 32.5186 28.2156 32.497 27.7453L32.4852 27.5359C32.4691 27.5312 32.452 27.5312 32.436 27.5359C32.3731 27.5664 32.322 27.6501 32.2394 27.5549C32.2925 27.0523 32.3456 26.5478 32.436 26.0509C32.5335 25.4421 32.716 24.849 32.9787 24.2879C32.9374 24.1908 32.8961 24.0861 32.8627 24.0062C32.7733 24.0063 32.6843 23.9928 32.5992 23.9662C32.5442 23.9357 32.4891 23.9053 32.436 23.871C32.358 23.825 32.286 23.77 32.2217 23.7073C32.0748 23.5621 31.9431 23.4033 31.8284 23.2332C31.4351 22.6468 31.0556 22.0547 30.6721 21.4626C30.5738 21.3246 30.5191 21.1619 30.5148 20.9943C30.5044 20.8703 30.4834 20.7474 30.4519 20.6268C30.4329 20.5529 30.4328 20.4756 30.4517 20.4016C30.4705 20.3276 30.5077 20.2592 30.5601 20.2023C30.912 19.8025 31.2424 19.3855 31.5826 18.9743C31.7769 18.7385 32.0031 18.5291 32.2551 18.3518C32.3141 18.3118 32.3711 18.268 32.4281 18.2223C32.4852 18.1766 32.5383 18.1309 32.5894 18.0814C32.6595 18.0091 32.7252 17.9328 32.786 17.8529L32.436 17.3941L32.4222 17.3789L32.436 17.3656L33.0554 16.7944C33.0554 16.5907 33.0358 16.4327 33.0318 16.2728C33.0284 16.1486 32.9976 16.0265 32.9414 15.9148C32.891 15.8078 32.8642 15.6917 32.8627 15.574C32.8627 15.3361 32.8765 15.1 32.8863 14.8544L32.8155 14.8277C32.8725 14.7154 32.9355 14.6069 32.9827 14.4927C32.9975 14.4635 33.0048 14.4313 33.0038 14.3988C33.0029 14.3663 32.9938 14.3346 32.9774 14.3063C32.9609 14.2779 32.9376 14.2539 32.9094 14.2363C32.8812 14.2187 32.849 14.208 32.8155 14.2052C32.6884 14.2008 32.5612 14.2098 32.436 14.2318C32.2885 14.2509 32.143 14.2794 31.9955 14.2966C31.9479 14.2933 31.9012 14.2817 31.8579 14.2623L31.9188 14.1652L32.2807 14.0833V14.0491C32.1961 14.03 32.1115 14.0129 32.029 13.9881C31.9268 13.9629 31.8268 13.9298 31.7301 13.8891C31.6859 13.8698 31.65 13.8363 31.6281 13.7944C31.6063 13.7525 31.6 13.7047 31.6101 13.6588C31.6478 13.6408 31.6908 13.6361 31.7317 13.6455C31.7727 13.6548 31.8089 13.6777 31.8343 13.7102C31.8683 13.7453 31.9095 13.7732 31.9551 13.7922C32.0008 13.8112 32.05 13.8208 32.0997 13.8206C32.1739 13.8222 32.2466 13.8006 32.3071 13.7591C32.3677 13.7177 32.4128 13.6585 32.436 13.5902C32.4354 13.582 32.4354 13.5737 32.436 13.5655C32.4902 13.4183 32.4902 13.2576 32.436 13.1105C32.436 13.0914 32.4222 13.0743 32.4144 13.0572C32.379 12.981 32.3377 12.9068 32.3003 12.8325C32.2682 12.7754 32.2567 12.7095 32.2678 12.6453C32.2788 12.5811 32.3117 12.5223 32.3613 12.4784L32.436 12.4175C32.499 12.3678 32.5646 12.3214 32.6326 12.2785C32.7122 12.2262 32.795 12.1785 32.8804 12.1357C33.0619 12.0358 33.2167 11.8963 33.3327 11.7283C33.6069 11.3681 33.9259 11.042 34.2825 10.7573C34.4852 10.593 34.7229 10.4741 34.9786 10.4089C35.0791 10.3804 35.1816 10.3588 35.2853 10.3442C35.4019 10.3263 35.521 10.3325 35.6348 10.3623C35.7487 10.3922 35.8548 10.445 35.946 10.5174C36.0994 10.6355 36.241 10.7668 36.3905 10.8887C36.4455 10.9363 36.5084 10.9763 36.5871 11.041L36.6657 10.8792C36.7354 10.9248 36.8011 10.9757 36.8624 11.0315C36.9233 11.1019 36.9666 11.1876 37.0256 11.2618L37.0767 11.3209C37.1357 11.3875 37.1986 11.4541 37.2734 11.5341C37.297 11.6731 37.3481 11.7245 37.5487 11.7587C37.5939 11.7683 37.64 11.774 37.6863 11.7759C37.7302 11.7785 37.7742 11.7785 37.8181 11.7759C37.8274 11.7901 37.8329 11.8063 37.8342 11.8231C37.8355 11.8399 37.8325 11.8567 37.8256 11.8722C37.8186 11.8876 37.8078 11.9011 37.7941 11.9115C37.7805 11.922 37.7644 11.929 37.7473 11.932C37.6942 11.951 37.6411 11.9739 37.6549 12.0424C37.7706 12.082 37.8888 12.1145 38.0088 12.1395C38.0916 12.1451 38.1747 12.1413 38.2566 12.1281C38.2391 12.199 38.2384 12.2727 38.2544 12.3439C38.2704 12.4151 38.3027 12.4819 38.349 12.5393C38.4134 12.6342 38.4399 12.7486 38.4237 12.8611C38.4124 12.9243 38.4147 12.9891 38.4306 13.0513C38.4466 13.1136 38.4757 13.172 38.5161 13.2228C38.5582 13.2711 38.5843 13.3305 38.591 13.3933C38.5976 13.4562 38.5846 13.5195 38.5535 13.575C38.5331 13.6187 38.5225 13.6661 38.5225 13.714C38.5225 13.7619 38.5331 13.8093 38.5535 13.853C38.58 13.9337 38.6024 14.0157 38.6204 14.0986C38.7049 14.1385 38.817 14.1823 38.9134 14.2356C39.0658 14.3031 39.1904 14.4183 39.2671 14.5627C39.3438 14.707 39.3681 14.8721 39.3361 15.0314C39.3315 15.0508 39.3256 15.0699 39.3184 15.0886H39.2122V15.1038L39.3066 15.14C39.4128 15.1761 39.519 15.2104 39.6252 15.2485C39.679 15.269 39.731 15.2938 39.7805 15.3227C39.8781 15.3764 39.9624 15.4501 40.0276 15.5385C40.0928 15.627 40.1373 15.7281 40.1581 15.8349C40.2092 16.0709 40.2387 16.3089 40.2721 16.5469C40.2938 16.6992 40.3075 16.8515 40.3193 17.0057C40.3465 17.1725 40.3961 17.335 40.4668 17.4893C40.5573 17.7501 40.6202 18.0186 40.693 18.2851C40.7716 18.584 40.8483 18.881 40.925 19.1799C40.9983 19.4699 41.1114 19.7491 41.2612 20.01C41.3614 20.1629 41.4283 20.3339 41.4579 20.5126C41.3683 20.6126 41.2498 20.6842 41.1177 20.7182C41.0036 20.7544 40.8857 20.7753 40.7755 20.8191C40.6654 20.8629 40.5651 20.9296 40.4648 20.9829C40.6615 21.9215 40.5632 22.8277 40.4334 23.7339C40.3587 24.1604 40.2761 24.5716 40.219 24.9867ZM40.0106 41.1693C39.9968 40.9142 40.0106 40.9047 40.2682 40.8647C40.3705 40.8495 40.4648 40.8209 40.5691 40.8057C40.7382 40.7771 40.8267 40.8228 40.864 40.9827C40.9309 41.2797 40.984 41.5787 41.0469 41.8776C41.0709 41.9863 41.1031 42.0932 41.1433 42.1974C41.229 42.427 41.2559 42.6733 41.2219 42.9151C41.0346 43.0332 40.811 43.085 40.5889 43.0617C40.3667 43.0385 40.1596 42.9416 40.0027 42.7876C40.0346 42.6075 40.055 42.4256 40.0637 42.2431C40.0578 41.8852 40.0283 41.5272 40.0106 41.1693ZM39.8376 43.1036C39.8651 43.0465 39.9025 42.9932 39.9437 42.9247C39.9922 42.9281 40.0403 42.9357 40.0873 42.9475C40.1349 42.962 40.1795 42.9846 40.219 43.0141C40.3168 43.0943 40.4366 43.145 40.5637 43.1603C40.6909 43.1755 40.8198 43.1545 40.9348 43.0998C41.041 43.0617 41.1433 43.0161 41.2455 42.9704C41.2853 42.9464 41.3228 42.919 41.3576 42.8885C41.3832 43.0637 41.4087 43.2331 41.4382 43.4235C41.3045 43.3873 41.214 43.2521 41.0784 43.3492C41.0902 43.5396 41.2593 43.6139 41.3832 43.73C41.3881 43.7577 41.3881 43.786 41.3832 43.8138C41.2573 44.1165 41.0646 44.3526 40.7067 44.3392C40.5582 44.335 40.4109 44.3126 40.2682 44.2726C40.1223 44.2334 39.9948 44.1467 39.9074 44.027C39.8199 43.9073 39.7779 43.762 39.7884 43.6158C39.7959 43.5636 39.8233 43.5161 39.8651 43.4825C39.9398 43.4197 40.0244 43.3683 40.1168 43.2921C40.0971 43.2407 40.0775 43.1874 40.0421 43.1017L39.81 43.3131L39.7746 43.2902C39.7943 43.2236 39.812 43.1607 39.8376 43.1036ZM32.6326 41.6224C32.6877 41.314 32.731 41.0037 32.7742 40.6934C32.7751 40.6548 32.7906 40.618 32.8178 40.5898C32.845 40.5617 32.882 40.5443 32.9217 40.5411C33.1565 40.5011 33.3968 40.5011 33.6316 40.5411C33.6924 40.8258 33.7175 41.1167 33.7063 41.4073C33.6806 41.8317 33.6964 42.2575 33.7535 42.6791C33.5018 42.9818 33.0712 43.0713 32.6091 42.9132C32.5953 42.7762 32.5737 42.6315 32.5638 42.4849C32.552 42.1958 32.5751 41.9063 32.6326 41.6224ZM32.615 43.0294C32.7546 43.0522 32.8961 43.0675 33.0358 43.0846C33.1184 43.093 33.2019 43.0856 33.2815 43.0627C33.3611 43.0399 33.4353 43.002 33.4998 42.9513C33.5515 42.9123 33.6076 42.8791 33.667 42.8523C33.7274 42.8304 33.79 42.8145 33.8538 42.8047L33.9501 42.9951C33.9208 43.0145 33.8925 43.0355 33.8656 43.0579C33.8448 43.0728 33.8283 43.0926 33.8179 43.1155C33.8075 43.1384 33.8035 43.1635 33.8063 43.1884C33.8091 43.2133 33.8186 43.237 33.8338 43.2572C33.849 43.2774 33.8695 43.2934 33.8931 43.3035C33.9456 43.3282 33.9884 43.3685 34.0153 43.4186C34.0422 43.4686 34.0518 43.5258 34.0426 43.5815C34.0431 43.7483 33.981 43.9097 33.8678 44.0354C33.7545 44.1612 33.5979 44.2428 33.4271 44.265C33.1915 44.2983 32.9512 44.2541 32.7447 44.1393C32.6838 44.046 32.6425 43.9775 32.5953 43.9128C32.4832 43.7605 32.4852 43.7224 32.6267 43.5967C32.7369 43.4977 32.7585 43.4539 32.7565 43.3435C32.6641 43.2693 32.6287 43.2731 32.4557 43.3835C32.4452 43.3065 32.4393 43.2289 32.438 43.1512C32.436 43.0427 32.4989 43.0103 32.6169 43.0294H32.615Z" fill="#FF9000"/>
<path d="M55.3736 31.891C54.184 37.593 49.7006 41.871 44.2969 46.4916V8.7041C48.0448 10.5832 53.3424 17.201 54.9823 21.9054C55.1239 22.3147 55.3245 23.0819 55.3245 23.0819C53.6031 21.7433 51.512 20.9261 49.3132 20.7326L49.0477 20.7707V25.2714H55.7099V29.8787H48.9887V34.3051L49.2326 34.4022C51.6807 34.5888 55.0551 32.7668 55.3736 31.891Z" fill="#FF9000"/>
<path d="M23.2017 41.2743V20.8879C23.1073 20.8612 22.4367 21.5771 22.1732 21.9959L21.1369 21.6152C19.6444 28.0882 20.2029 33.9464 21.1369 39.8921C14.8051 33.5903 14.4511 21.8246 21.2234 14.9289L21.8999 15.262C22.8202 13.9598 23.6008 12.688 24.5545 11.5534C25.5082 10.4187 26.6802 9.36774 28.041 7.99316V46.8316L23.2017 41.2743Z" fill="#FF9000"/>
<path d="M9.11823 75.5235H6.38296L6.64252 67.8567H6.61696L5.57477 73.4064H3.53953L2.49734 67.8567H2.47177L2.73134 75.5235H0V57.8691H3.07349L4.53257 68.009H4.58566L6.17452 57.8691H9.12413L9.11823 75.5235Z" fill="#FF9000"/>
<path d="M14.8228 75.5236H12.7129C12.4111 75.5267 12.1118 75.4714 11.8325 75.361C11.5531 75.2506 11.2993 75.0874 11.0859 74.8808C10.8726 74.6742 10.704 74.4285 10.59 74.158C10.4759 73.8875 10.4188 73.5977 10.422 73.3056V60.0891C10.4188 59.7968 10.476 59.5067 10.5901 59.236C10.7042 58.9653 10.873 58.7194 11.0865 58.5126C11.3001 58.3059 11.5541 58.1425 11.8337 58.032C12.1133 57.9215 12.4129 57.8662 12.7148 57.8693H14.8228C15.1242 57.867 15.423 57.9229 15.7019 58.0337C15.9807 58.1446 16.2339 58.3081 16.4466 58.5148C16.6594 58.7215 16.8274 58.9672 16.9409 59.2375C17.0545 59.5078 17.1112 59.7973 17.1078 60.0891V62.2329L14.3725 63.7464V60.6698C14.3744 60.5933 14.3598 60.5172 14.3297 60.4464C14.2995 60.3756 14.2545 60.3116 14.1975 60.2586C14.0776 60.1505 13.9189 60.0918 13.7551 60.0949C13.6763 60.0932 13.598 60.1072 13.525 60.136C13.4521 60.1647 13.3859 60.2076 13.3307 60.262C13.2754 60.3163 13.2323 60.3811 13.2038 60.4522C13.1753 60.5233 13.1622 60.5993 13.1651 60.6755V72.7307C13.1635 72.8061 13.1777 72.8811 13.2068 72.9511C13.2358 73.0211 13.2792 73.0846 13.3343 73.138C13.3894 73.1913 13.4551 73.2334 13.5274 73.2615C13.5997 73.2897 13.6771 73.3034 13.7551 73.3018C13.9189 73.3049 14.0776 73.2462 14.1975 73.1381C14.2563 73.0849 14.3029 73.0202 14.3341 72.9484C14.3653 72.8765 14.3804 72.7991 14.3784 72.7211V69.6483L17.1078 71.1619V73.3056C17.1115 73.5979 17.0547 73.8879 16.9409 74.1586C16.8271 74.4293 16.6585 74.6753 16.445 74.8819C16.2316 75.0886 15.9776 75.2519 15.6979 75.3621C15.4183 75.4723 15.1188 75.5272 14.8169 75.5236H14.8228Z" fill="#FF9000"/>
<path d="M24.2051 75.5235H18.4219V57.8691H24.2051V60.089H21.1571V65.5892H23.2927V67.8091H21.1571V73.3074H24.2051V75.5235Z" fill="#FF9000"/>
<path d="M29.57 75.5237H27.46C27.1586 75.5265 26.8597 75.471 26.5808 75.3605C26.3019 75.2499 26.0486 75.0866 25.8357 74.88C25.6229 74.6734 25.4548 74.4277 25.3414 74.1574C25.2279 73.8871 25.1714 73.5975 25.175 73.3057V71.162L27.9103 69.6484V72.7251C27.9087 72.8005 27.9229 72.8755 27.9519 72.9455C27.981 73.0155 28.0244 73.079 28.0795 73.1324C28.1346 73.1857 28.2003 73.2277 28.2726 73.2559C28.3449 73.2841 28.4223 73.2978 28.5002 73.2962C28.6641 73.2997 28.823 73.2409 28.9427 73.1325C29.0022 73.0797 29.0493 73.0151 29.0808 72.9432C29.1124 72.8713 29.1276 72.7937 29.1255 72.7155V68.6147C29.1247 68.5542 29.1104 68.4947 29.0836 68.4402C29.0568 68.3856 29.0181 68.3373 28.9702 68.2986C28.8633 68.2053 28.7392 68.1323 28.6045 68.0835L27.928 67.7313L26.99 67.2782C26.534 67.0759 26.1054 66.8201 25.7138 66.5166C25.5312 66.366 25.3875 66.1763 25.2939 65.9624C25.2004 65.7486 25.1597 65.5166 25.175 65.2848V60.0892C25.1684 59.7966 25.2237 59.5057 25.3377 59.2346C25.4517 58.9635 25.6219 58.7178 25.8377 58.5129C26.0454 58.3055 26.2948 58.1414 26.5704 58.0308C26.846 57.9201 27.142 57.8652 27.4403 57.8694H29.5759C29.8772 57.8673 30.1759 57.9234 30.4546 58.0343C30.7333 58.1453 30.9864 58.3088 31.1991 58.5155C31.4118 58.7221 31.5798 58.9677 31.6934 59.2379C31.8071 59.5081 31.864 59.7975 31.8608 60.0892V62.233L29.1255 63.7465V60.6699C29.1276 60.5918 29.1124 60.5142 29.0808 60.4422C29.0493 60.3703 29.0022 60.3058 28.9427 60.253C28.823 60.1445 28.6641 60.0857 28.5002 60.0892C28.4215 60.0876 28.3432 60.1016 28.2702 60.1304C28.1972 60.1591 28.1311 60.202 28.0759 60.2563C28.0206 60.3107 27.9774 60.3755 27.949 60.4466C27.9205 60.5177 27.9073 60.5937 27.9103 60.6699V64.7042C27.9103 64.906 28.0558 65.0754 28.3528 65.2087L28.5081 65.2848L29.9809 66.0045C30.4437 66.2295 30.884 66.4953 31.2965 66.7984C31.4873 66.9447 31.6389 67.1334 31.7385 67.3485C31.8381 67.5635 31.8828 67.7987 31.8687 68.034V73.3057C31.8718 73.598 31.8147 73.888 31.7006 74.1586C31.5864 74.4292 31.4176 74.675 31.2041 74.8816C30.9905 75.0882 30.7365 75.2514 30.4569 75.3617C30.1773 75.4719 29.8777 75.527 29.5759 75.5237H29.57Z" fill="#FF9000"/>
<path d="M37.563 75.5236H35.457C35.1551 75.5269 34.8556 75.4718 34.576 75.3616C34.2964 75.2513 34.0424 75.0881 33.8288 74.8815C33.6152 74.6749 33.4464 74.4291 33.3323 74.1585C33.2182 73.8879 33.161 73.5979 33.1642 73.3056V60.0891C33.161 59.7968 33.2182 59.5067 33.3323 59.236C33.4464 58.9653 33.6152 58.7194 33.8287 58.5126C34.0422 58.3059 34.2963 58.1425 34.5759 58.032C34.8555 57.9215 35.155 57.8662 35.457 57.8693H37.563C37.865 57.8662 38.1646 57.9215 38.4442 58.032C38.7238 58.1425 38.9778 58.3059 39.1913 58.5126C39.4049 58.7194 39.5737 58.9653 39.6878 59.236C39.8019 59.5067 39.859 59.7968 39.8559 60.0891V62.2329L37.1206 63.7464V60.6698C37.1227 60.5917 37.1074 60.5141 37.0759 60.4421C37.0443 60.3702 36.9972 60.3057 36.9377 60.2529C36.8178 60.1448 36.6591 60.086 36.4953 60.0891C36.4157 60.0862 36.3364 60.0992 36.2622 60.1274C36.1881 60.1555 36.1207 60.1982 36.0644 60.2527C36.0081 60.3072 35.9641 60.3724 35.935 60.4442C35.9059 60.5159 35.8925 60.5928 35.8955 60.6698V72.725C35.8939 72.8012 35.9083 72.877 35.938 72.9476C35.9677 73.0183 36.012 73.0823 36.0681 73.1358C36.1243 73.1893 36.1911 73.2311 36.2646 73.2587C36.3381 73.2862 36.4166 73.299 36.4953 73.2961C36.6591 73.2992 36.8178 73.2405 36.9377 73.1324C36.9972 73.0796 37.0443 73.015 37.0759 72.9431C37.1074 72.8712 37.1227 72.7936 37.1206 72.7154V69.6483L39.8559 71.1619V73.3056C39.859 73.5979 39.8019 73.8879 39.6877 74.1585C39.5736 74.4291 39.4048 74.6749 39.1912 74.8815C38.9777 75.0881 38.7236 75.2513 38.444 75.3616C38.1644 75.4718 37.8649 75.5269 37.563 75.5236Z" fill="#FF9000"/>
<path d="M45.9244 75.5236H43.8145C43.5126 75.5272 43.2131 75.4723 42.9334 75.3621C42.6538 75.2519 42.3998 75.0886 42.1864 74.8819C41.9729 74.6753 41.8043 74.4293 41.6905 74.1586C41.5766 73.8879 41.5199 73.5979 41.5236 73.3056V60.0891C41.5202 59.7969 41.5771 59.5069 41.691 59.2362C41.8049 58.9655 41.9735 58.7195 42.1868 58.5127C42.4002 58.306 42.6541 58.1425 42.9336 58.032C43.2131 57.9215 43.5126 57.8662 43.8145 57.8693H45.9244C46.2264 57.8662 46.526 57.9215 46.8056 58.032C47.0852 58.1425 47.3392 58.3059 47.5527 58.5126C47.7663 58.7194 47.935 58.9653 48.0492 59.236C48.1633 59.5067 48.2204 59.7968 48.2173 60.0891V73.3056C48.2204 73.5979 48.1633 73.8879 48.0491 74.1585C47.935 74.4291 47.7662 74.6749 47.5526 74.8815C47.3391 75.0881 47.085 75.2513 46.8054 75.3616C46.5258 75.4718 46.2263 75.5269 45.9244 75.5236ZM44.8567 73.3056C45.0206 73.3091 45.1794 73.2504 45.2991 73.1419C45.3586 73.0891 45.4057 73.0246 45.4373 72.9526C45.4688 72.8807 45.4841 72.8031 45.482 72.725V60.6698C45.4841 60.5917 45.4688 60.5141 45.4373 60.4421C45.4057 60.3702 45.3586 60.3057 45.2991 60.2529C45.1794 60.1444 45.0206 60.0856 44.8567 60.0891C44.7779 60.0875 44.6996 60.1015 44.6267 60.1303C44.5537 60.159 44.4875 60.2019 44.4323 60.2562C44.3771 60.3106 44.3339 60.3754 44.3054 60.4465C44.2769 60.5176 44.2638 60.5936 44.2667 60.6698V72.725C44.2651 72.8004 44.2793 72.8754 44.3084 72.9453C44.3375 73.0153 44.3808 73.0789 44.4359 73.1323C44.4911 73.1856 44.5567 73.2276 44.629 73.2558C44.7013 73.284 44.7788 73.2977 44.8567 73.2961V73.3056Z" fill="#FF9000"/>
<path d="M56.2191 75.5236H53.4916V68.9173C53.4939 68.8391 53.4787 68.7614 53.4471 68.6895C53.4156 68.6176 53.3684 68.553 53.3088 68.5003C53.1888 68.3922 53.0302 68.3335 52.8663 68.3366H52.2764V75.5236H49.5234V57.8693H53.9262C54.2282 57.8662 54.5278 57.9215 54.8074 58.032C55.087 58.1425 55.341 58.3059 55.5545 58.5126C55.7681 58.7194 55.9368 58.9653 56.051 59.236C56.1651 59.5067 56.2222 59.7968 56.2191 60.0891V65.2847C56.2317 65.6275 56.1212 65.9639 55.9064 66.2367C55.6822 66.5018 55.4088 66.7239 55.1002 66.8916C55.8461 67.3993 56.2191 68.0212 56.2191 68.7573V75.5236ZM52.2587 65.5893L52.9627 65.2371C53.3107 65.0848 53.4838 64.9078 53.4838 64.706V60.6698C53.4843 60.5922 53.4677 60.5154 53.4352 60.4445C53.4026 60.3736 53.3548 60.3102 53.295 60.2586C53.1751 60.1505 53.0164 60.0918 52.8526 60.0949H52.2626L52.2587 65.5893Z" fill="#FF9000"/>
<path d="M62.2272 75.5235H59.5175V60.089H57.2188V57.8691H64.5122V60.089H62.2272V75.5235Z" fill="#FF9000"/>
<path d="M69.7045 75.5237H67.5945C67.2926 75.527 66.9931 75.4719 66.7135 75.3617C66.4339 75.2514 66.1799 75.0882 65.9663 74.8816C65.7527 74.675 65.5839 74.4292 65.4698 74.1586C65.3557 73.888 65.2985 73.598 65.3017 73.3057V71.162L68.035 69.6485V72.7251C68.0333 72.8013 68.0478 72.8771 68.0775 72.9478C68.1071 73.0184 68.1514 73.0825 68.2076 73.1359C68.2638 73.1894 68.3306 73.2312 68.4041 73.2588C68.4775 73.2864 68.556 73.2991 68.6347 73.2962C68.7986 73.2993 68.9572 73.2406 69.0772 73.1325C69.1367 73.0797 69.1838 73.0152 69.2154 72.9432C69.2469 72.8713 69.2621 72.7937 69.2601 72.7156V68.6147C69.2587 68.5542 69.244 68.4946 69.2169 68.4401C69.1897 68.3856 69.1508 68.3373 69.1027 68.2986C68.9966 68.2054 68.8731 68.1324 68.739 68.0835L68.0625 67.7313L67.1245 67.2782C66.6683 67.0764 66.2396 66.8206 65.8483 66.5166C65.6635 66.3665 65.5176 66.1765 65.4224 65.962C65.3271 65.7474 65.2851 65.5142 65.2997 65.281V60.0893C65.2934 59.7965 65.3492 59.5056 65.4635 59.2344C65.5778 58.9633 65.7482 58.7178 65.9644 58.5129C66.1719 58.3053 66.4212 58.1412 66.6969 58.0305C66.9725 57.9198 67.2686 57.865 67.567 57.8694H69.7025C70.0045 57.8663 70.304 57.9217 70.5837 58.0321C70.8633 58.1426 71.1173 58.306 71.3308 58.5128C71.5444 58.7195 71.7131 58.9654 71.8272 59.2362C71.9413 59.5069 71.9985 59.7969 71.9953 60.0893V62.233L69.2601 63.7465V60.6699C69.2621 60.5918 69.2469 60.5142 69.2154 60.4423C69.1838 60.3703 69.1367 60.3058 69.0772 60.253C68.9572 60.1449 68.7986 60.0862 68.6347 60.0893C68.5552 60.0863 68.4758 60.0993 68.4017 60.1275C68.3275 60.1556 68.2602 60.1983 68.2039 60.2528C68.1476 60.3073 68.1035 60.3725 68.0745 60.4443C68.0454 60.5161 68.032 60.5929 68.035 60.6699V64.7042C68.035 64.906 68.1825 65.0754 68.4794 65.2087L68.6347 65.2849C69.1204 65.5209 69.6179 65.7608 70.1056 66.0045C70.5689 66.2286 71.0093 66.4944 71.4211 66.7984C71.6126 66.9443 71.7648 67.1329 71.8648 67.348C71.9647 67.5632 72.0095 67.7985 71.9953 68.034V73.3057C71.9985 73.598 71.9413 73.888 71.8272 74.1586C71.7131 74.4292 71.5443 74.675 71.3307 74.8816C71.1171 75.0882 70.8631 75.2514 70.5835 75.3617C70.3039 75.4719 70.0044 75.527 69.7025 75.5237H69.7045Z" fill="#FF9000"/>
</g>
<defs>
<clipPath id="clip0_1401_9646">
<rect width="72" height="76" fill="white"/>
</clipPath>
</defs>
</svg>
