<svg width="35" height="35" viewBox="0 0 35 35" fill="none" xmlns="http://www.w3.org/2000/svg">
<g clip-path="url(#clip0_1095_20257)">
<path d="M13.0281 8.75C10.3465 8.75 7.77467 9.77376 5.87847 11.5961C3.98227 13.4184 2.91699 15.8899 2.91699 18.4671C2.91699 21.0442 3.98227 23.5158 5.87847 25.3381C7.77467 27.1604 10.3465 28.1841 13.0281 28.1841C15.7097 28.1841 18.2815 27.1604 20.1777 25.3381C22.0739 23.5158 23.1392 21.0442 23.1392 18.4671C23.1392 15.8899 22.0739 13.4184 20.1777 11.5961C18.2815 9.77376 15.7097 8.75 13.0281 8.75Z" stroke="white" stroke-width="1.94444" stroke-linecap="round" stroke-linejoin="round"/>
<path d="M21.5851 23.6999C25.474 23.6999 31.5717 21.5068 32.474 17.7202H23.1406C27.8073 16.2252 33.1584 12.4386 34.0295 8.75056H27.8073C23.094 8.75056 21.9522 8.45755 20.0295 10.993M13.0295 22.205C11.9981 22.205 11.009 21.8112 10.2797 21.1103C9.55035 20.4094 9.14063 19.4588 9.14062 18.4676C9.14063 17.4764 9.55035 16.5258 10.2797 15.8249C11.009 15.124 11.9981 14.7303 13.0295 14.7303C14.0609 14.7303 15.0501 15.124 15.7794 15.8249C16.5087 16.5258 16.9184 17.4764 16.9184 18.4676C16.9184 19.4588 16.5087 20.4094 15.7794 21.1103C15.0501 21.8112 14.0609 22.205 13.0295 22.205Z" stroke="white" stroke-width="1.94444" stroke-linecap="round" stroke-linejoin="round"/>
</g>
<defs>
<clipPath id="clip0_1095_20257">
<rect width="35" height="35" fill="white"/>
</clipPath>
</defs>
</svg>
