<svg width="27" height="27" viewBox="0 0 27 27" fill="none" xmlns="http://www.w3.org/2000/svg">
<g clip-path="url(#clip0_1095_20251)">
<path d="M25.7121 13.5001C25.7121 16.7837 24.4077 19.9329 22.0858 22.2547C19.7639 24.5766 16.6148 25.881 13.3311 25.881C10.0475 25.881 6.89837 24.5766 4.57649 22.2547C2.25461 19.9329 0.950195 16.7837 0.950195 13.5001M25.7121 13.5001C25.7121 10.2165 24.4077 7.06732 22.0858 4.74544C19.7639 2.42356 16.6148 1.11914 13.3311 1.11914C10.0475 1.11914 6.89837 2.42356 4.57649 4.74544C2.25461 7.06732 0.950195 10.2165 0.950195 13.5001M25.7121 13.5001H0.950195" stroke="#FEFEFE" stroke-width="1.66667" stroke-linecap="round" stroke-linejoin="round"/>
<path d="M18.0912 13.5001C17.8573 18.0277 16.1896 22.3636 13.3293 25.881C10.4689 22.3636 8.80128 18.0277 8.56738 13.5001C8.80128 8.97249 10.4689 4.63657 13.3293 1.11914C16.1896 4.63657 17.8573 8.97249 18.0912 13.5001Z" stroke="#FEFEFE" stroke-width="1.66667" stroke-linecap="round" stroke-linejoin="round"/>
</g>
<defs>
<clipPath id="clip0_1095_20251">
<rect width="26.6667" height="26.6667" fill="white" transform="translate(0 0.166992)"/>
</clipPath>
</defs>
</svg>
